<svg height="512pt" viewBox="0 -13 512.001 512" width="512pt" xmlns="http://www.w3.org/2000/svg"><path d="m478.136719 213.878906-36.625-36.621094c-7.742188-7.746093-12.09375-18.246093-12.09375-29.199218v-23.761719c0-25.484375-14.652344-48.695313-37.660157-59.648437l-100.378906-47.800782c-23.292968-11.09375-48.765625-16.847656-74.5625-16.847656h-29.320312c-4.863282 0-9.578125.851562-13.972656 2.433594l-19.523438 25.074218-39.667969 126.664063c-6.347656 20.863281-30.140625 45.335937-51.949219 45.335937h-21.09375c-22.804687 0-30.789062 8.914063-30.789062 31.71875v42.949219c0 30.664063 14.816406 60.070313 36.5 81.75l53.5 54.578125c12.898438 12.902344 26.601562 13.402344 39.5.5l24.867188-14c16.125-16.125 42.269531-16.125 58.394531 0l64.402343 64c23.558594 23.5625 54.109376 31.898438 77.671876 8.335938l22-22c16.738281-16.738282 51.523437-24.238282 68.261718-7.5h.011719c12.902344 12.898437 27.554687 20.414062 40.453125 7.511718 2.117188-2.113281 11.632812-7.050781 11.632812-7.050781 2.796876-4.925781 4.304688-10.539062 4.304688-16.304687v-128.367188c0-30.660156-12.179688-60.066406-33.863281-81.75zm0 0" fill="#d19a6e"/><path d="m478.96875 440.296875c-4.242188 0-8.414062-1.53125-11.394531-4.546875-12.910157-13.09375-30.808594-19.441406-49.4375-17.28125-13.761719 1.601562-26.371094 8.515625-36.164063 18.3125l-19.453125 19.449219c-7.199219 7.195312-16.398437 12.425781-26.5 13.691406-13.785156 1.726563-27.070312-2.867187-36.679687-12.476563l-62.859375-62.859374c-10.007813-10.007813-23-16.984376-37.101563-18.238282-2.089844-.183594-4.167968-.257812-6.230468-.226562-28.335938.433594-54.84375-13.695313-67.234376-39.183594l-36.832031-75.769531c-11.785156-24.25-4.863281-52.960938 15.789063-70.292969 9.554687-8.019531 16.859375-18.804688 20.714844-31.46875l47.933593-156.972656c-12.027343 4.320312-21.648437 13.878906-25.527343 26.617187l-38.210938 125.546875c-6.347656 20.863282-25.589844 35.121094-47.398438 35.121094h-21.09375c-22.804687 0-41.289062 18.484375-41.289062 41.289062v42.949219c0 30.664063 12.179688 60.070313 33.863281 81.75l66.648438 66.652344c6.453125 6.449219 14.90625 9.675781 23.359375 9.675781s16.90625-3.226562 23.355468-9.675781l17.640626-17.640625c8.0625-8.0625 18.628906-12.09375 29.195312-12.09375 10.570312 0 21.136719 4.03125 29.199219 12.09375l64.402343 64.40625c11.78125 11.777344 27.21875 17.667969 42.660157 17.667969 15.4375 0 30.878906-5.890625 42.65625-17.667969l22.003906-22.003906c8.371094-8.367188 19.335937-12.554688 30.304687-12.554688 10.972657 0 21.9375 4.183594 30.308594 12.554688l.011719.011718c6.453125 6.453126 14.90625 9.675782 23.359375 9.675782s16.90625-3.222656 23.355469-9.675782c2.042969-2.039062 3.9375-4.382812 5.363281-6.839843zm0 0" fill="#c38c66"/><g fill="#b57f5f"><path d="m445.933594 334.238281c-20.492188 0-37.160156-16.667969-37.160156-37.160156 0-2.285156-1.847657-4.128906-4.128907-4.128906s-4.128906 1.84375-4.128906 4.128906c0 20.492187-16.667969 37.160156-37.160156 37.160156-2.28125 0-4.128907 1.847657-4.128907 4.128907s1.847657 4.128906 4.128907 4.128906c20.492187 0 37.160156 16.667968 37.160156 37.160156 0 2.28125 1.847656 4.128906 4.128906 4.128906s4.128907-1.847656 4.128907-4.128906c0-20.492188 16.667968-37.160156 37.160156-37.160156 2.285156 0 4.128906-1.847656 4.128906-4.128906s-1.84375-4.128907-4.128906-4.128907zm0 0"/><path d="m313.804688 103.011719c-15.933594 0-28.902344-12.96875-28.902344-28.902344 0-2.28125-1.847656-4.128906-4.128906-4.128906s-4.128907 1.847656-4.128907 4.128906c0 15.933594-12.96875 28.902344-28.902343 28.902344-2.28125 0-4.128907 1.847656-4.128907 4.128906s1.847657 4.128906 4.128907 4.128906c15.9375 0 28.902343 12.96875 28.902343 28.902344 0 2.28125 1.847657 4.128906 4.128907 4.128906s4.128906-1.847656 4.128906-4.128906c0-15.933594 12.96875-28.902344 28.902344-28.902344 2.285156 0 4.128906-1.847656 4.128906-4.128906s-1.84375-4.128906-4.128906-4.128906zm0 0"/><path d="m297.289062 355.101562h-8.257812v-8.257812c0-4.566406-3.691406-8.257812-8.257812-8.257812-4.5625 0-8.257813 3.691406-8.257813 8.257812v8.257812h-8.257813c-4.566406 0-8.257812 3.691407-8.257812 8.257813 0 4.5625 3.695312 8.257813 8.257812 8.257813h8.257813v8.257812c0 4.566406 3.695313 8.257812 8.257813 8.257812 4.566406 0 8.257812-3.695312 8.257812-8.257812v-8.257812h8.257812c4.566407 0 8.257813-3.695313 8.257813-8.257813 0-4.566406-3.691406-8.257813-8.257813-8.257813zm0 0"/><path d="m336.160156 274.9375-16.515625-16.515625c-3.226562-3.226563-8.453125-3.226563-11.675781 0-3.226562 3.226563-3.226562 8.453125 0 11.675781l16.515625 16.519532c1.613281 1.609374 3.726563 2.417968 5.839844 2.417968s4.226562-.808594 5.835937-2.417968c3.226563-3.226563 3.226563-8.453126 0-11.679688zm0 0"/><path d="m175.839844 109.773438-8.257813 8.257812c-3.226562 3.226562-3.226562 8.453125 0 11.675781 1.613281 1.613281 3.726563 2.421875 5.839844 2.421875 2.109375 0 4.222656-.808594 5.835937-2.421875l8.257813-8.257812c3.226563-3.226563 3.226563-8.449219 0-11.675781-3.226563-3.226563-8.449219-3.226563-11.675781 0zm0 0"/></g><path d="m66.066406 239.488281h-8.257812c-4.566406 0-8.257813 3.691407-8.257813 8.257813 0 4.5625 3.691407 8.257812 8.257813 8.257812h8.257812c4.5625 0 8.257813-3.695312 8.257813-8.257812 0-4.566406-3.695313-8.257813-8.257813-8.257813zm0 0" fill="#9f6e50"/><path d="m346.839844 404.429688c-4.566406 0-8.257813 3.695312-8.257813 8.257812v8.257812c0 4.566407 3.691407 8.257813 8.257813 8.257813 4.5625 0 8.257812-3.691406 8.257812-8.257813v-8.257812c0-4.5625-3.695312-8.257812-8.257812-8.257812zm0 0" fill="#b57f5f"/><path d="m253.167969 222.753906c0 15.648438-5.871094 29.261719-18.703125 36.265625-5.867188 3.203125-12.597656 5.023438-19.753906 5.023438-22.804688 0-41.289063-18.484375-41.289063-41.289063 0-7.125 1.804687-13.832031 4.980469-19.679687 6.992187-12.871094 20.628906-19.402344 36.308594-19.402344 22.804687 0 38.457031 16.277344 38.457031 39.082031zm0 0" fill="#b57f5f"/><path d="m214.710938 181.464844c-15.664063 0-29.269532 8.683594-36.265626 21.539062 5.855469-3.1875 12.609376-5.023437 19.75-5.023437 22.800782 0 41.289063 18.484375 41.289063 41.289062 0 7.140625-1.832031 13.890625-5.019531 19.75 12.855468-6.996093 21.535156-20.601562 21.535156-36.265625 0-22.804687-18.484375-41.289062-41.289062-41.289062zm0 0" fill="#9f6e50"/><path d="m119.742188 288.816406c-5.59375 0-10.667969 2.226563-14.382813 5.835938 0 0-2.609375 10.460937-2.609375 16.269531l19.746094 19.003906c10.101562-1.347656 17.890625-9.996093 17.890625-20.464843 0-11.398438-9.242188-20.644532-20.644531-20.644532zm0 0" fill="#b57f5f"/><path d="m388.128906 214.496094c0 9.121094-7.394531 16.515625-16.515625 16.515625-9.121093 0-16.515625-7.394531-16.515625-16.515625s7.394532-16.515625 16.515625-16.515625c9.121094 0 16.515625 7.394531 16.515625 16.515625zm0 0" fill="#b57f5f"/><path d="m105.355469 294.652344c-3.859375 3.75-6.257813 9.003906-6.257813 14.8125 0 11.402344 9.242188 20.644531 20.644532 20.644531.933593 0 1.859374-.046875 2.757812-.164063zm0 0" fill="#9f6e50"/></svg>