<svg id="Capa_1" enable-background="new 0 0 512.137 512.137" height="512" viewBox="0 0 512.137 512.137" width="512" xmlns="http://www.w3.org/2000/svg"><g><path d="m328.664 426.718 181.094-276.305c3.646-5.676 3.056-13.103-1.46-18.137-4.703-5.138-11.839-6.412-17.868-3.387l-44.612 22.301 64.727-129.465c2.89-5.769.746-12.243-3.563-16.552s-10.783-6.452-16.552-3.563l-129.465 64.728 22.301-44.612c3.014-6.039 1.471-13.507-3.387-17.868-5.034-4.516-12.461-5.106-18.137-1.46l-276.305 181.094c-48.641 31.281-78.638 78.244-84.438 132.23-5.687 52.981 13.103 105.413 51.562 143.873 38.439 38.439 90.86 57.218 143.811 51.521 54.047-5.801 101.031-35.777 132.292-84.398z" fill="#fabe2c"/><path d="m196.371 511.115c54.048-5.8 101.032-35.777 132.292-84.397l181.094-276.305c3.646-5.676 3.056-13.103-1.46-18.137-4.703-5.138-11.839-6.412-17.868-3.387l-44.612 22.301 64.727-129.465c2.89-5.769.746-12.243-3.563-16.552l-454.42 454.422c38.438 38.438 90.86 57.217 143.81 51.52z" fill="#ff9100"/><circle cx="179.84" cy="332.316" fill="#c86e59" r="120"/><g fill="#8c4a37"><path d="m264.693 417.168c46.787-46.787 46.787-122.918 0-169.706l-169.706 169.706c46.787 46.787 122.919 46.787 169.706 0z"/><circle cx="190.447" cy="279.281" r="15"/><path d="m211.66 321.709c-3.737-3.737-8.038-6.507-12.56-8.653-16.713-7.926-37.269-5.157-51.079 8.653s-16.579 34.367-8.653 51.079c2.145 4.523 4.916 8.824 8.653 12.56 17.546 17.546 46.093 17.546 63.64 0s17.545-46.093-.001-63.639z"/></g><path d="m211.66 385.349c17.546-17.546 17.546-46.093 0-63.64-3.737-3.737-8.038-6.507-12.56-8.653l-59.732 59.732c2.145 4.523 4.916 8.824 8.653 12.56 17.546 17.547 46.092 17.547 63.639.001z" fill="#663325"/></g></svg>