<svg height="511pt" viewBox="1 0 511.99975 511" width="511pt" xmlns="http://www.w3.org/2000/svg"><path d="m471.597656 348.3125c-.824218-4.679688-3.011718-9.164062-6.628906-12.78125l-192-192c-9.375-9.375-24.5625-9.375-33.9375 0-6.578125 6.574219-8.4375 15.992188-5.785156 24.28125l-64.277344-64.28125c-9.375-9.375-24.5625-9.375-33.9375 0-9.375 9.371094-9.375 24.566406 0 33.9375l32.277344 32.28125c-8.285156-2.65625-17.699219-.796875-24.277344 5.78125-9.375 9.371094-9.375 24.566406 0 33.9375l56.277344 56.28125c-8.285156-2.65625-17.699219-.796875-24.277344 5.78125-9.375 9.371094-9.375 24.566406 0 33.9375l160 160c3.617188 3.617188 8.101562 5.804688 12.78125 6.632812 16.136719 19.765626 40.679688 32.398438 68.1875 32.398438 48.601562 0 88-39.398438 88-88 0-27.507812-12.636719-52.050781-32.402344-68.1875zm0 0" fill="#dbeaff"/><path d="m430.589844 354.140625c-9.683594-2.175781-19.070313-2.113281-27.792969-.257813-15.285156 3.25-31.121094-2.476562-42.171875-13.527343l-79.003906-79.003907c-5.171875-5.171874-13.5-6.425781-19.433594-2.148437-7.566406 5.453125-8.191406 16.058594-1.882812 22.367187l79.558593 79.5625c11.046875 11.046876 16.769531 26.878907 13.519531 42.160157-1.855468 8.722656-1.917968 18.105469.257813 27.789062 5.476563 24.386719 25.527344 43.71875 50.101563 48.277344 44.882812 8.324219 83.441406-30.234375 75.117187-75.117187-4.554687-24.570313-23.886719-44.625-48.269531-50.101563zm0 0" fill="#edf4ff"/><path d="m416 512.453125c-24.585938 0-49.164062-9.355469-67.882812-28.070313l-204-204c-3.125-3.125-3.125-8.1875 0-11.3125s8.1875-3.125 11.3125 0l204 204c31.195312 31.191407 81.945312 31.183594 113.140624 0 31.195313-31.191406 31.195313-81.949218 0-113.140624l-260-260c-3.125-3.125-3.125-8.1875 0-11.3125s8.1875-3.125 11.3125 0l260 260c18.132813 18.132812 28.117188 42.238281 28.117188 67.882812s-9.984375 49.75-28.117188 67.882812c-18.71875 18.714844-43.296874 28.070313-67.882812 28.070313zm0 0" fill="#c3ddff"/><path d="m416 368.5-17.03125 3.109375c-2.664062 1.007813-5.210938 2.25-7.621094 3.695313-13.988281 8.390624-19.847656 23.699218-19.847656 41.195312 0 26.507812 17.988281 42.640625 44.5 42.640625 17.488281 0 32.792969-3.996094 41.183594-17.976563 4.328125-7.207031 6.816406-15.644531 6.816406-24.664062 0-26.507812-21.492188-48-48-48zm0 0" fill="#8bb3ea"/><g fill="#c3ddff"><path d="m236.007812 244.507812c-2.046874 0-4.09375-.78125-5.65625-2.34375l-228.007812-228.007812c-3.125-3.125-3.125-8.1875 0-11.3125s8.1875-3.125 11.3125 0l228.007812 228.007812c3.125 3.125 3.125 8.1875 0 11.3125-1.5625 1.5625-3.609374 2.34375-5.65625 2.34375zm0 0"/><path d="m256 328.5c-2.046875 0-4.09375-.78125-5.65625-2.34375l-152-152c-3.125-3.125-3.125-8.1875 0-11.3125s8.1875-3.125 11.3125 0l152 152c3.125 3.125 3.125 8.1875 0 11.3125-1.5625 1.5625-3.609375 2.34375-5.65625 2.34375zm0 0"/><path d="m340 284.5c-2.046875 0-4.09375-.78125-5.65625-2.34375l-220-220c-3.125-3.125-3.125-8.1875 0-11.3125s8.1875-3.125 11.3125 0l220 220c3.125 3.125 3.125 8.1875 0 11.3125-1.5625 1.5625-3.609375 2.34375-5.65625 2.34375zm0 0"/></g><path d="m456 408.5c0 8.835938-7.164062 16-16 16s-16-7.164062-16-16 7.164062-16 16-16 16 7.164062 16 16zm0 0" fill="#a4ccff"/><path d="m416 368.5c-6.019531 0-11.722656 1.085938-17.03125 3.109375l8.015625 12.292969c1.539063 2.332031 4.085937 3.597656 6.6875 3.597656 1.507813 0 3.039063-.425781 4.390625-1.320312 3.695312-2.429688 4.710938-7.390626 2.28125-11.082032zm0 0" fill="#a4ccff"/><path d="m432.5 448c-3.867188 0-7.617188-.46875-11.21875-1.332031l1.375-2.0625c2.453125-3.675781 1.460938-8.644531-2.21875-11.09375-3.695312-2.460938-8.648438-1.460938-11.09375 2.21875l-3.003906 4.503906c-8.160156-5.316406-14.601563-13.042969-18.316406-22.175781l7.492187 5.066406c1.375.929688 2.9375 1.375 4.476563 1.375 2.570312 0 5.085937-1.230469 6.632812-3.519531 2.476562-3.65625 1.515625-8.636719-2.140625-11.105469l-11.335937-7.667969c-2.667969-1.808593-6.015626-1.78125-8.597657-.230469-.027343-.65625-.050781-1.3125-.050781-1.976562 0-9.023438 2.515625-17.484375 6.847656-24.695312-13.972656 8.394531-23.347656 23.710937-23.347656 41.195312 0 26.507812 21.488281 48 48 48 17.484375 0 32.792969-9.363281 41.183594-23.332031-7.210938 4.328125-15.660156 6.832031-24.683594 6.832031zm0 0" fill="#739ad6"/></svg>